# xmcd
#
# Track frame offsets:
#	150
#	25129
#	43075
#	64978
#	93571
#	122853
#	143213
#	159016
#	183424
#	200454
#
# Disc length: 3011 seconds
# Revision: 1
# Processed by: cddbd v1.5.2PL0 Copyright (c) Steve Scherf et al.
# Submitted via: dBpowerAMP V12.0
#
DISCID=890bc10a
DTITLE=J.J.Band, The - J.J. Band i przyjaciele grają utwory Tadeusza Nalepy
DYEAR=2010
DGENRE=Blues
TTITLE0=Rzeka dzieciństwa
TTITLE1=Taką drogę
TTITLE2=W co mam wierzyć
TTITLE3=Oni zaraz przyjdą tu
TTITLE4=Modlitwa
TTITLE5=Ona poszła inną drogą
TTITLE6=Śliska dzisiaj droga
TTITLE7=Co stało się kwiatom
TTITLE8=Przyszła do mnie bieda
TTITLE9=Daję ci próg
EXTD=
EXTT0=
EXTT1=
EXTT2=
EXTT3=
EXTT4=
EXTT5=
EXTT6=
EXTT7=
EXTT8=
EXTT9=
PLAYORDER=
